RobotoExtremo-opszmax-wgthmax-wdthmin.ufo
<glyph name="comma" format="2">
  <advance width="408"/>
  <unicode hex="002C"/>
  <outline>
    <contour>
      <point x="-116" y="-145" type="qcurve"/>
      <point x="355" y="-183" type="line"/>
      <point x="402" y="-138"/>
      <point x="456" y="29"/>
      <point x="456" y="104" type="qcurve" smooth="yes"/>
      <point x="456" y="496" type="line"/>
      <point x="-47" y="496" type="line"/>
      <point x="-47" y="100" type="line" smooth="yes"/>
      <point x="-47" y="39"/>
      <point x="-79" y="-88"/>
    </contour>
  </outline>
</glyph>
<glyph name="period" format="2">
  <advance width="436"/>
  <unicode hex="002E"/>
  <outline>
    <contour>
      <point x="-81" y="259" type="qcurve" smooth="yes"/>
      <point x="-81" y="145"/>
      <point x="73" y="-16"/>
      <point x="218" y="-16" type="qcurve" smooth="yes"/>
      <point x="363" y="-16"/>
      <point x="517" y="141"/>
      <point x="517" y="258" type="qcurve" smooth="yes"/>
      <point x="517" y="375"/>
      <point x="363" y="532"/>
      <point x="218" y="532" type="qcurve" smooth="yes"/>
      <point x="73" y="532"/>
      <point x="-81" y="375"/>
    </contour>
  </outline>
</glyph>
<glyph name="zero" format="2">
  <advance width="1096"/>
  <unicode hex="0030"/>
  <outline>
    <contour>
      <point x="54" y="402" type="line" smooth="yes"/>
      <point x="54" y="191"/>
      <point x="317" y="-20"/>
      <point x="548" y="-20" type="qcurve" smooth="yes"/>
      <point x="747" y="-20"/>
      <point x="1042" y="188"/>
      <point x="1042" y="402" type="qcurve" smooth="yes"/>
      <point x="1042" y="1057" type="line" smooth="yes"/>
      <point x="1042" y="1259"/>
      <point x="774" y="1476"/>
      <point x="548" y="1476" type="qcurve" smooth="yes"/>
      <point x="321" y="1476"/>
      <point x="54" y="1249"/>
      <point x="54" y="1057" type="qcurve" smooth="yes"/>
    </contour>
    <contour>
      <point x="634" y="276" type="qcurve"/>
      <point x="634" y="1176" type="line"/>
      <point x="634" y="1153"/>
      <point x="591" y="1088"/>
      <point x="548" y="1088" type="qcurve" smooth="yes"/>
      <point x="504" y="1088"/>
      <point x="462" y="1153"/>
      <point x="462" y="1176" type="qcurve"/>
      <point x="462" y="276" type="line"/>
      <point x="462" y="302"/>
      <point x="506" y="359"/>
      <point x="548" y="359" type="qcurve" smooth="yes"/>
      <point x="589" y="359"/>
      <point x="634" y="302"/>
    </contour>
  </outline>
</glyph>
<glyph name="one" format="2">
  <advance width="701"/>
  <unicode hex="0031"/>
  <outline>
    <contour>
      <point x="285" y="0" type="line"/>
      <point x="868" y="0" type="line"/>
      <point x="868" y="1447" type="line"/>
      <point x="344" y="1447" type="line"/>
      <point x="-25" y="1332" type="line"/>
      <point x="-25" y="859" type="line"/>
      <point x="285" y="962" type="line"/>
    </contour>
  </outline>
</glyph>
<glyph name="A" format="2">
  <advance width="1060"/>
  <unicode hex="0041"/>
  <outline>
    <contour>
      <point x="-20" y="0" type="line"/>
      <point x="547" y="0" type="line"/>
      <point x="518" y="605" type="line"/>
      <point x="521" y="647"/>
      <point x="523" y="688"/>
      <point x="518" y="694" type="qcurve"/>
      <point x="520" y="694" type="line"/>
      <point x="516" y="686"/>
      <point x="518" y="645"/>
      <point x="523" y="605" type="qcurve"/>
      <point x="509" y="0" type="line"/>
      <point x="1080" y="0" type="line"/>
      <point x="842" y="1455" type="line"/>
      <point x="239" y="1455" type="line"/>
    </contour>
    <contour>
      <point x="357" y="141" type="line"/>
      <point x="691" y="141" type="line"/>
      <point x="673" y="505" type="line"/>
      <point x="375" y="505" type="line"/>
    </contour>
  </outline>
</glyph>
<glyph name="B" format="2">
  <advance width="983"/>
  <unicode hex="0042"/>
  <outline>
    <contour>
      <point x="-2" y="0" type="line"/>
      <point x="620" y="0" type="line" smooth="yes"/>
      <point x="819" y="0"/>
      <point x="1011" y="222"/>
      <point x="1011" y="435" type="qcurve" smooth="yes"/>
      <point x="1011" y="597"/>
      <point x="873" y="740"/>
      <point x="772" y="769" type="qcurve"/>
      <point x="772" y="770" type="line"/>
      <point x="849" y="804"/>
      <point x="950" y="936"/>
      <point x="950" y="1086" type="qcurve" smooth="yes"/>
      <point x="950" y="1246"/>
      <point x="817" y="1456"/>
      <point x="614" y="1456" type="qcurve" smooth="yes"/>
      <point x="-2" y="1456" type="line"/>
    </contour>
    <contour>
      <point x="566" y="376" type="line"/>
      <point x="566" y="585" type="line"/>
      <point x="427" y="585" type="line" smooth="yes"/>
      <point x="412" y="585"/>
      <point x="410" y="546"/>
      <point x="410" y="496" type="qcurve" smooth="yes"/>
      <point x="410" y="426"/>
      <point x="416" y="376"/>
      <point x="418" y="376" type="qcurve" smooth="yes"/>
    </contour>
    <contour>
      <point x="566" y="857" type="line"/>
      <point x="566" y="1058" type="line"/>
      <point x="440" y="1058" type="line" smooth="yes"/>
      <point x="419" y="1058"/>
      <point x="397" y="1005"/>
      <point x="397" y="958" type="qcurve" smooth="yes"/>
      <point x="397" y="911"/>
      <point x="407" y="857"/>
      <point x="428" y="857" type="qcurve" smooth="yes"/>
    </contour>
  </outline>
</glyph>
<glyph name="C" format="2">
  <advance width="846"/>
  <unicode hex="0043"/>
  <outline>
    <contour>
      <point x="7" y="308" type="line" smooth="yes"/>
      <point x="7" y="139"/>
      <point x="231" y="-14"/>
      <point x="437" y="-14" type="qcurve" smooth="yes"/>
      <point x="623" y="-14"/>
      <point x="829" y="124"/>
      <point x="828" y="293" type="qcurve" smooth="yes"/>
      <point x="827" y="692" type="line"/>
      <point x="289" y="692" type="line"/>
      <point x="289" y="316" type="line"/>
      <point x="289" y="316"/>
      <point x="386" y="367"/>
      <point x="448" y="367" type="qcurve" smooth="yes"/>
      <point x="519" y="367"/>
      <point x="641" y="210"/>
      <point x="641" y="99" type="qcurve"/>
      <point x="641" y="1359" type="line"/>
      <point x="641" y="1251"/>
      <point x="544" y="1077"/>
      <point x="452" y="1077" type="qcurve" smooth="yes"/>
      <point x="369" y="1077"/>
      <point x="287" y="1186"/>
      <point x="289" y="1214" type="qcurve"/>
      <point x="289" y="754" type="line"/>
      <point x="827" y="754" type="line"/>
      <point x="827" y="1153" type="line" smooth="yes"/>
      <point x="826" y="1345"/>
      <point x="616" y="1470"/>
      <point x="437" y="1470" type="qcurve" smooth="yes"/>
      <point x="241" y="1470"/>
      <point x="7" y="1332"/>
      <point x="7" y="1151" type="qcurve" smooth="yes"/>
    </contour>
  </outline>
</glyph>
<glyph name="D" format="2">
  <advance width="933"/>
  <unicode hex="0044"/>
  <outline>
    <contour>
      <point x="-2" y="0" type="line"/>
      <point x="636" y="0" type="line" smooth="yes"/>
      <point x="768" y="0"/>
      <point x="925" y="144"/>
      <point x="925" y="268" type="qcurve" smooth="yes"/>
      <point x="925" y="1159" type="line" smooth="yes"/>
      <point x="925" y="1320"/>
      <point x="778" y="1456"/>
      <point x="643" y="1456" type="qcurve" smooth="yes"/>
      <point x="-2" y="1456" type="line"/>
    </contour>
    <contour>
      <point x="568" y="390" type="line"/>
      <point x="568" y="1042" type="line"/>
      <point x="538" y="1042" type="line" smooth="yes"/>
      <point x="451" y="1042"/>
      <point x="333" y="1216"/>
      <point x="333" y="1282" type="qcurve"/>
      <point x="333" y="159" type="line"/>
      <point x="333" y="251"/>
      <point x="442" y="390"/>
      <point x="538" y="390" type="qcurve" smooth="yes"/>
    </contour>
  </outline>
</glyph>
<glyph name="E" format="2">
  <advance width="861"/>
  <unicode hex="0045"/>
  <outline>
    <contour>
      <point x="10" y="0" type="line"/>
      <point x="853" y="0" type="line"/>
      <point x="853" y="466" type="line"/>
      <point x="570" y="466" type="line"/>
      <point x="570" y="496" type="line"/>
      <point x="828" y="496" type="line"/>
      <point x="828" y="962" type="line"/>
      <point x="570" y="962" type="line"/>
      <point x="570" y="990" type="line"/>
      <point x="846" y="990" type="line"/>
      <point x="846" y="1456" type="line"/>
      <point x="10" y="1456" type="line"/>
    </contour>
  </outline>
</glyph>
<glyph name="F" format="2">
  <advance width="791"/>
  <unicode hex="0046"/>
  <outline>
    <contour>
      <point x="-2" y="0" type="line"/>
      <point x="588" y="0" type="line"/>
      <point x="588" y="489" type="line"/>
      <point x="756" y="489" type="line"/>
      <point x="756" y="905" type="line"/>
      <point x="588" y="905" type="line"/>
      <point x="588" y="991" type="line"/>
      <point x="781" y="991" type="line"/>
      <point x="781" y="1456" type="line"/>
      <point x="-2" y="1456" type="line"/>
    </contour>
  </outline>
</glyph>
<glyph name="G" format="2">
  <advance width="858"/>
  <unicode hex="0047"/>
  <outline>
    <contour>
      <point x="6" y="309" type="line" smooth="yes"/>
      <point x="6" y="120"/>
      <point x="259" y="-14"/>
      <point x="423" y="-14" type="qcurve" smooth="yes"/>
      <point x="613" y="-14"/>
      <point x="823" y="90"/>
      <point x="876" y="167" type="qcurve"/>
      <point x="876" y="878" type="line"/>
      <point x="454" y="876" type="line"/>
      <point x="454" y="500" type="line"/>
      <point x="324" y="500" type="line"/>
      <point x="324" y="339" type="line"/>
      <point x="357" y="361"/>
      <point x="412" y="377"/>
      <point x="437" y="377" type="qcurve" smooth="yes"/>
      <point x="528" y="377"/>
      <point x="621" y="219"/>
      <point x="621" y="115" type="qcurve"/>
      <point x="621" y="1327" type="line"/>
      <point x="621" y="1234"/>
      <point x="543" y="1054"/>
      <point x="460" y="1054" type="qcurve" smooth="yes"/>
      <point x="386" y="1054"/>
      <point x="319" y="1101"/>
      <point x="321" y="1052" type="qcurve" smooth="yes"/>
      <point x="321" y="920" type="line"/>
      <point x="863" y="920" type="line"/>
      <point x="863" y="1111" type="line" smooth="yes"/>
      <point x="863" y="1288"/>
      <point x="674" y="1470"/>
      <point x="489" y="1470" type="qcurve" smooth="yes"/>
      <point x="282" y="1470"/>
      <point x="6" y="1329"/>
      <point x="6" y="1150" type="qcurve" smooth="yes"/>
    </contour>
  </outline>
</glyph>
<glyph name="H" format="2">
  <advance width="866"/>
  <unicode hex="0048"/>
  <outline>
    <contour>
      <point x="-2" y="0" type="line"/>
      <point x="588" y="0" type="line"/>
      <point x="588" y="504" type="line"/>
      <point x="278" y="504" type="line"/>
      <point x="278" y="0" type="line"/>
      <point x="868" y="0" type="line"/>
      <point x="868" y="1456" type="line"/>
      <point x="278" y="1456" type="line"/>
      <point x="278" y="1001" type="line"/>
      <point x="588" y="1001" type="line"/>
      <point x="588" y="1456" type="line"/>
      <point x="-2" y="1456" type="line"/>
    </contour>
  </outline>
</glyph>
<glyph name="I" format="2">
  <advance width="588"/>
  <unicode hex="0049"/>
  <outline>
    <contour>
      <point x="-6" y="0" type="line"/>
      <point x="594" y="0" type="line"/>
      <point x="594" y="1456" type="line"/>
      <point x="-6" y="1456" type="line"/>
    </contour>
  </outline>
</glyph>
<glyph name="J" format="2">
  <advance width="890"/>
  <unicode hex="004A"/>
  <outline>
    <contour>
      <point x="0" y="391" type="line" smooth="yes"/>
      <point x="0" y="165"/>
      <point x="216" y="-14"/>
      <point x="444" y="-14" type="qcurve" smooth="yes"/>
      <point x="675" y="-14"/>
      <point x="888" y="172"/>
      <point x="888" y="399" type="qcurve" smooth="yes"/>
      <point x="888" y="1456" type="line"/>
      <point x="297" y="1456" type="line"/>
      <point x="297" y="280" type="line"/>
      <point x="297" y="299"/>
      <point x="355" y="368"/>
      <point x="400" y="368" type="qcurve" smooth="yes"/>
      <point x="445" y="368"/>
      <point x="506" y="326"/>
      <point x="506" y="288" type="qcurve"/>
      <point x="506" y="545" type="line"/>
      <point x="0" y="545" type="line"/>
    </contour>
  </outline>
</glyph>
<glyph name="K" format="2">
  <advance width="1094"/>
  <unicode hex="004B"/>
  <outline>
    <contour>
      <point x="-2" y="0" type="line"/>
      <point x="588" y="0" type="line"/>
      <point x="588" y="398" type="line"/>
      <point x="1083" y="1456" type="line"/>
      <point x="520" y="1456" type="line"/>
      <point x="588" y="1163" type="line"/>
      <point x="588" y="1456" type="line"/>
      <point x="-2" y="1456" type="line"/>
    </contour>
    <contour>
      <point x="521" y="0" type="line"/>
      <point x="1164" y="0" type="line"/>
      <point x="815" y="1130" type="line"/>
      <point x="467" y="638" type="line"/>
    </contour>
  </outline>
</glyph>
<glyph name="L" format="2">
  <advance width="838"/>
  <unicode hex="004C"/>
  <outline>
    <contour>
      <point x="10" y="0" type="line"/>
      <point x="834" y="0" type="line"/>
      <point x="834" y="466" type="line"/>
      <point x="600" y="466" type="line"/>
      <point x="600" y="1456" type="line"/>
      <point x="10" y="1456" type="line"/>
    </contour>
  </outline>
</glyph>
<glyph name="M" format="2">
  <advance width="1456"/>
  <unicode hex="004D"/>
  <outline>
    <contour>
      <point x="10" y="0" type="line"/>
      <point x="578" y="0" type="line"/>
      <point x="578" y="410" type="line" smooth="yes"/>
      <point x="578" y="419"/>
      <point x="579" y="444"/>
      <point x="579" y="458" type="qcurve"/>
      <point x="579" y="458" type="line"/>
      <point x="581" y="445"/>
      <point x="579" y="422"/>
      <point x="577" y="407" type="qcurve"/>
      <point x="461" y="0" type="line"/>
      <point x="1002" y="0" type="line"/>
      <point x="887" y="408" type="line"/>
      <point x="886" y="426"/>
      <point x="882" y="442"/>
      <point x="885" y="458" type="qcurve"/>
      <point x="885" y="458" type="line"/>
      <point x="885" y="442"/>
      <point x="886" y="427"/>
      <point x="886" y="411" type="qcurve" smooth="yes"/>
      <point x="886" y="0" type="line"/>
      <point x="1458" y="0" type="line"/>
      <point x="1458" y="1456" type="line"/>
      <point x="641" y="1456" type="line"/>
      <point x="727" y="940" type="line"/>
      <point x="730" y="934"/>
      <point x="735" y="931"/>
      <point x="734" y="926" type="qcurve"/>
      <point x="734" y="926" type="line"/>
      <point x="733" y="931"/>
      <point x="738" y="934"/>
      <point x="741" y="940" type="qcurve"/>
      <point x="822" y="1456" type="line"/>
      <point x="10" y="1456" type="line"/>
    </contour>
  </outline>
</glyph>
<glyph name="N" format="2">
  <advance width="848"/>
  <unicode hex="004E"/>
  <outline>
    <contour>
      <point x="-2" y="0" type="line"/>
      <point x="492" y="0" type="line"/>
      <point x="492" y="338" type="line" smooth="yes"/>
      <point x="492" y="360"/>
      <point x="493" y="351"/>
      <point x="492" y="373" type="qcurve"/>
      <point x="493" y="373" type="line"/>
      <point x="497" y="349"/>
      <point x="491" y="321"/>
      <point x="492" y="298" type="qcurve"/>
      <point x="307" y="0" type="line"/>
      <point x="825" y="0" type="line"/>
      <point x="825" y="1456" type="line"/>
      <point x="331" y="1456" type="line"/>
      <point x="331" y="1168" type="line" smooth="yes"/>
      <point x="331" y="1142"/>
      <point x="330" y="1117"/>
      <point x="331" y="1091" type="qcurve"/>
      <point x="330" y="1091" type="line"/>
      <point x="327" y="1119"/>
      <point x="325" y="1171"/>
      <point x="326" y="1198" type="qcurve"/>
      <point x="539" y="1456" type="line"/>
      <point x="-2" y="1456" type="line"/>
    </contour>
  </outline>
</glyph>
<glyph name="O" format="2">
  <advance width="882"/>
  <unicode hex="004F"/>
  <outline>
    <contour>
      <point x="6" y="277" type="line" smooth="yes"/>
      <point x="6" y="134"/>
      <point x="246" y="-14"/>
      <point x="439" y="-14" type="qcurve" smooth="yes"/>
      <point x="626" y="-14"/>
      <point x="876" y="135"/>
      <point x="876" y="277" type="qcurve" smooth="yes"/>
      <point x="876" y="1149" type="line" smooth="yes"/>
      <point x="876" y="1312"/>
      <point x="639" y="1470"/>
      <point x="439" y="1470" type="qcurve" smooth="yes"/>
      <point x="239" y="1470"/>
      <point x="6" y="1312"/>
      <point x="6" y="1149" type="qcurve" smooth="yes"/>
    </contour>
    <contour>
      <point x="624" y="104" type="qcurve"/>
      <point x="624" y="1348" type="line"/>
      <point x="624" y="1207"/>
      <point x="506" y="1077"/>
      <point x="439" y="1077" type="qcurve" smooth="yes"/>
      <point x="372" y="1077"/>
      <point x="259" y="1207"/>
      <point x="259" y="1348" type="qcurve"/>
      <point x="259" y="104" type="line"/>
      <point x="259" y="245"/>
      <point x="366" y="369"/>
      <point x="439" y="369" type="qcurve" smooth="yes"/>
      <point x="506" y="369"/>
      <point x="624" y="246"/>
    </contour>
  </outline>
</glyph>
<glyph name="P" format="2">
  <advance width="1030"/>
  <unicode hex="0050"/>
  <outline>
    <contour>
      <point x="10" y="0" type="line"/>
      <point x="600" y="0" type="line"/>
      <point x="600" y="309" type="line"/>
      <point x="683" y="309" type="line" smooth="yes"/>
      <point x="874" y="309"/>
      <point x="1047" y="590"/>
      <point x="1047" y="879" type="qcurve" smooth="yes"/>
      <point x="1047" y="1168"/>
      <point x="877" y="1456"/>
      <point x="696" y="1456" type="qcurve" smooth="yes"/>
      <point x="10" y="1456" type="line"/>
    </contour>
    <contour>
      <point x="600" y="690" type="line"/>
      <point x="600" y="1041" type="line"/>
      <point x="513" y="1041" type="line" smooth="yes"/>
      <point x="472" y="1041"/>
      <point x="459" y="991"/>
      <point x="459" y="865" type="qcurve" smooth="yes"/>
      <point x="459" y="741"/>
      <point x="483" y="690"/>
      <point x="513" y="690" type="qcurve" smooth="yes"/>
    </contour>
  </outline>
</glyph>
<glyph name="Q" format="2">
  <advance width="882"/>
  <unicode hex="0051"/>
  <outline>
    <contour>
      <point x="6" y="310" type="line" smooth="yes"/>
      <point x="6" y="137"/>
      <point x="238" y="-11"/>
      <point x="436" y="-11" type="qcurve" smooth="yes"/>
      <point x="635" y="-11"/>
      <point x="876" y="137"/>
      <point x="876" y="310" type="qcurve" smooth="yes"/>
      <point x="876" y="1149" type="line" smooth="yes"/>
      <point x="876" y="1312"/>
      <point x="635" y="1470"/>
      <point x="436" y="1470" type="qcurve" smooth="yes"/>
      <point x="237" y="1470"/>
      <point x="6" y="1312"/>
      <point x="6" y="1149" type="qcurve" smooth="yes"/>
    </contour>
    <contour>
      <point x="624" y="103" type="qcurve"/>
      <point x="624" y="1348" type="line"/>
      <point x="624" y="1207"/>
      <point x="501" y="1077"/>
      <point x="436" y="1077" type="qcurve" smooth="yes"/>
      <point x="373" y="1077"/>
      <point x="259" y="1207"/>
      <point x="259" y="1348" type="qcurve"/>
      <point x="259" y="103" type="line"/>
      <point x="259" y="231"/>
      <point x="373" y="368"/>
      <point x="436" y="368" type="qcurve" smooth="yes"/>
      <point x="501" y="368"/>
      <point x="624" y="231"/>
    </contour>
    <contour>
      <point x="528" y="-150" type="line"/>
      <point x="833" y="186" type="line"/>
      <point x="549" y="474" type="line"/>
      <point x="248" y="138" type="line"/>
    </contour>
  </outline>
</glyph>
<glyph name="R" format="2">
  <advance width="1147"/>
  <unicode hex="0052"/>
  <outline>
    <contour>
      <point x="-2" y="0" type="line"/>
      <point x="588" y="0" type="line"/>
      <point x="588" y="413" type="line"/>
      <point x="614" y="413" type="line" smooth="yes"/>
      <point x="759" y="413"/>
      <point x="1038" y="662"/>
      <point x="1038" y="952" type="qcurve" smooth="yes"/>
      <point x="1038" y="1224"/>
      <point x="842" y="1456"/>
      <point x="703" y="1456" type="qcurve" smooth="yes"/>
      <point x="-2" y="1456" type="line"/>
    </contour>
    <contour>
      <point x="588" y="776" type="line"/>
      <point x="588" y="1052" type="line"/>
      <point x="484" y="1052" type="line" smooth="yes"/>
      <point x="473" y="1052"/>
      <point x="438" y="994"/>
      <point x="438" y="910" type="qcurve" smooth="yes"/>
      <point x="438" y="823"/>
      <point x="451" y="778"/>
      <point x="481" y="777" type="qcurve" smooth="yes"/>
    </contour>
    <contour>
      <point x="592" y="0" type="line"/>
      <point x="1215" y="0" type="line"/>
      <point x="971" y="667" type="line"/>
      <point x="398" y="667" type="line"/>
    </contour>
  </outline>
</glyph>
<glyph name="S" format="2">
  <advance width="780"/>
  <unicode hex="0053"/>
  <outline>
    <contour>
      <point x="-58" y="293" type="line" smooth="yes"/>
      <point x="-58" y="141"/>
      <point x="204" y="-14"/>
      <point x="387" y="-14" type="qcurve" smooth="yes"/>
      <point x="570" y="-14"/>
      <point x="815" y="191"/>
      <point x="815" y="455" type="qcurve" smooth="yes"/>
      <point x="815" y="717"/>
      <point x="685" y="896"/>
      <point x="548" y="991" type="qcurve" smooth="yes"/>
      <point x="442" y="1063"/>
      <point x="483" y="1054"/>
      <point x="483" y="1101" type="qcurve" smooth="yes"/>
      <point x="483" y="1130"/>
      <point x="432" y="1082"/>
      <point x="379" y="1082" type="qcurve" smooth="yes"/>
      <point x="330" y="1082"/>
      <point x="278" y="1142"/>
      <point x="278" y="1140" type="qcurve" smooth="yes"/>
      <point x="278" y="962" type="line"/>
      <point x="789" y="962" type="line"/>
      <point x="789" y="1208" type="line" smooth="yes"/>
      <point x="789" y="1339"/>
      <point x="560" y="1468"/>
      <point x="368" y="1468" type="qcurve" smooth="yes"/>
      <point x="192" y="1468"/>
      <point x="-61" y="1289"/>
      <point x="-61" y="1056" type="qcurve" smooth="yes"/>
      <point x="-61" y="841"/>
      <point x="63" y="689"/>
      <point x="229" y="572" type="qcurve"/>
      <point x="308" y="492"/>
      <point x="274" y="483"/>
      <point x="274" y="395" type="qcurve" smooth="yes"/>
      <point x="274" y="330"/>
      <point x="324" y="358"/>
      <point x="375" y="358" type="qcurve" smooth="yes"/>
      <point x="416" y="358"/>
      <point x="462" y="348"/>
      <point x="463" y="365" type="qcurve"/>
      <point x="463" y="515" type="line"/>
      <point x="-58" y="515" type="line"/>
    </contour>
  </outline>
</glyph>
<glyph name="T" format="2">
  <advance width="842"/>
  <unicode hex="0054"/>
  <outline>
    <contour>
      <point x="-4" y="990" type="line"/>
      <point x="122" y="990" type="line"/>
      <point x="122" y="0" type="line"/>
      <point x="722" y="0" type="line"/>
      <point x="722" y="990" type="line"/>
      <point x="846" y="990" type="line"/>
      <point x="846" y="1456" type="line"/>
      <point x="-4" y="1456" type="line"/>
    </contour>
  </outline>
</glyph>
<glyph name="U" format="2">
  <advance width="875"/>
  <unicode hex="0055"/>
  <outline>
    <contour>
      <point x="-18" y="382" type="line" smooth="yes"/>
      <point x="-18" y="178"/>
      <point x="218" y="-14"/>
      <point x="439" y="-14" type="qcurve" smooth="yes"/>
      <point x="644" y="-14"/>
      <point x="878" y="178"/>
      <point x="878" y="382" type="qcurve" smooth="yes"/>
      <point x="878" y="1456" type="line"/>
      <point x="291" y="1456" type="line"/>
      <point x="291" y="280" type="line"/>
      <point x="291" y="302"/>
      <point x="374" y="372"/>
      <point x="430" y="372" type="qcurve" smooth="yes"/>
      <point x="489" y="372"/>
      <point x="570" y="302"/>
      <point x="570" y="280" type="qcurve"/>
      <point x="570" y="1456" type="line"/>
      <point x="-18" y="1456" type="line"/>
    </contour>
  </outline>
</glyph>
<glyph name="V" format="2">
  <advance width="950"/>
  <unicode hex="0056"/>
  <outline>
    <contour>
      <point x="-40" y="1456" type="line"/>
      <point x="170" y="-9" type="line"/>
      <point x="784" y="-9" type="line"/>
      <point x="990" y="1456" type="line"/>
      <point x="410" y="1456" type="line"/>
      <point x="508" y="1279" type="line"/>
      <point x="498" y="1193"/>
      <point x="484" y="1036"/>
      <point x="486" y="989" type="qcurve"/>
      <point x="485" y="989" type="line"/>
      <point x="482" y="1040"/>
      <point x="472" y="1197"/>
      <point x="464" y="1279" type="qcurve"/>
      <point x="550" y="1456" type="line"/>
    </contour>
  </outline>
</glyph>
<glyph name="W" format="2">
  <advance width="1521"/>
  <unicode hex="0057"/>
  <outline>
    <contour>
      <point x="208" y="0" type="line"/>
      <point x="760" y="0" type="line"/>
      <point x="771" y="485" type="line"/>
      <point x="773" y="508"/>
      <point x="774" y="541"/>
      <point x="772" y="559" type="qcurve"/>
      <point x="774" y="559" type="line"/>
      <point x="772" y="541"/>
      <point x="774" y="507"/>
      <point x="775" y="485" type="qcurve" smooth="yes"/>
      <point x="782" y="0" type="line"/>
      <point x="1313" y="0" type="line"/>
      <point x="1531" y="1456" type="line"/>
      <point x="992" y="1456" type="line"/>
      <point x="1005" y="981" type="line"/>
      <point x="1004" y="963"/>
      <point x="1003" y="943"/>
      <point x="1001" y="924" type="qcurve"/>
      <point x="1002" y="924" type="line"/>
      <point x="1001" y="943"/>
      <point x="1003" y="957"/>
      <point x="1000" y="981" type="qcurve"/>
      <point x="996" y="1456" type="line"/>
      <point x="545" y="1456" type="line"/>
      <point x="558" y="980" type="line"/>
      <point x="557" y="962"/>
      <point x="556" y="944"/>
      <point x="555" y="922" type="qcurve"/>
      <point x="556" y="922" type="line"/>
      <point x="555" y="943"/>
      <point x="552" y="962"/>
      <point x="551" y="980" type="qcurve" smooth="yes"/>
      <point x="528" y="1456" type="line"/>
      <point x="-30" y="1456" type="line"/>
    </contour>
  </outline>
</glyph>
<glyph name="X" format="2">
  <advance width="956"/>
  <unicode hex="0058"/>
  <outline>
    <contour>
      <point x="-50" y="0" type="line"/>
      <point x="466" y="0" type="line"/>
      <point x="648" y="683" type="line"/>
      <point x="788" y="727" type="line"/>
      <point x="986" y="1456" type="line"/>
      <point x="470" y="1456" type="line"/>
      <point x="312" y="876" type="line"/>
      <point x="176" y="845" type="line"/>
    </contour>
    <contour>
      <point x="-26" y="1456" type="line"/>
      <point x="181" y="699" type="line"/>
      <point x="211" y="661" type="line"/>
      <point x="364" y="0" type="line"/>
      <point x="986" y="0" type="line"/>
      <point x="742" y="865" type="line"/>
      <point x="713" y="899" type="line"/>
      <point x="596" y="1456" type="line"/>
    </contour>
  </outline>
</glyph>
<glyph name="Y" format="2">
  <advance width="868"/>
  <unicode hex="0059"/>
  <outline>
    <contour>
      <point x="139" y="0" type="line"/>
      <point x="739" y="0" type="line"/>
      <point x="739" y="537" type="line"/>
      <point x="934" y="1456" type="line"/>
      <point x="387" y="1456" type="line"/>
      <point x="470" y="1235" type="line"/>
      <point x="472" y="1218"/>
      <point x="471" y="1180"/>
      <point x="474" y="1154" type="qcurve"/>
      <point x="474" y="1154" type="line"/>
      <point x="477" y="1180"/>
      <point x="477" y="1217"/>
      <point x="479" y="1236" type="qcurve"/>
      <point x="556" y="1456" type="line"/>
      <point x="-66" y="1456" type="line"/>
      <point x="139" y="537" type="line"/>
    </contour>
  </outline>
</glyph>
<glyph name="Z" format="2">
  <advance width="812"/>
  <unicode hex="005A"/>
  <outline>
    <contour>
      <point x="-18" y="0" type="line"/>
      <point x="830" y="0" type="line"/>
      <point x="830" y="446" type="line"/>
      <point x="706" y="446" type="line"/>
      <point x="786" y="1122" type="line"/>
      <point x="786" y="1456" type="line"/>
      <point x="-25" y="1456" type="line"/>
      <point x="-25" y="990" type="line"/>
      <point x="62" y="990" type="line"/>
      <point x="-18" y="314" type="line"/>
    </contour>
  </outline>
</glyph>
<glyph name="a" format="2">
  <advance width="962"/>
  <unicode hex="0061"/>
  <outline>
    <contour>
      <point x="-37" y="274" type="qcurve" smooth="yes"/>
      <point x="-37" y="128"/>
      <point x="84" y="-13"/>
      <point x="191" y="-13" type="qcurve" smooth="yes"/>
      <point x="274" y="-13"/>
      <point x="376" y="10"/>
      <point x="403" y="35" type="qcurve"/>
      <point x="406" y="18"/>
      <point x="410" y="15"/>
      <point x="426" y="0" type="qcurve"/>
      <point x="998" y="0" type="line"/>
      <point x="998" y="12" type="line"/>
      <point x="978" y="26"/>
      <point x="962" y="63"/>
      <point x="962" y="97" type="qcurve" smooth="yes"/>
      <point x="962" y="645" type="line" smooth="yes"/>
      <point x="962" y="784"/>
      <point x="758" y="937"/>
      <point x="514" y="937" type="qcurve" smooth="yes"/>
      <point x="289" y="937"/>
      <point x="36" y="801"/>
      <point x="36" y="659" type="qcurve" smooth="yes"/>
      <point x="36" y="592" type="line"/>
      <point x="539" y="589" type="line"/>
      <point x="539" y="657" type="line"/>
      <point x="539" y="656"/>
      <point x="499" y="655"/>
      <point x="460" y="655" type="qcurve" smooth="yes"/>
      <point x="426" y="655"/>
      <point x="395" y="653"/>
      <point x="395" y="654" type="qcurve"/>
      <point x="395" y="576" type="line"/>
      <point x="248" y="576" type="line" smooth="yes"/>
      <point x="125" y="576"/>
      <point x="-37" y="426"/>
    </contour>
    <contour>
      <point x="522" y="331" type="qcurve" smooth="yes"/>
      <point x="522" y="363"/>
      <point x="505" y="377"/>
      <point x="459" y="377" type="qcurve" smooth="yes"/>
      <point x="395" y="377" type="line"/>
      <point x="395" y="228" type="line"/>
      <point x="395" y="230"/>
      <point x="461" y="258"/>
      <point x="489" y="258" type="qcurve" smooth="yes"/>
      <point x="505" y="258"/>
      <point x="522" y="279"/>
    </contour>
  </outline>
</glyph>
<glyph name="b" format="2">
  <advance width="963"/>
  <unicode hex="0062"/>
  <outline>
    <contour>
      <point x="-22" y="0" type="line"/>
      <point x="540" y="0" type="line"/>
      <point x="540" y="25" type="line"/>
      <point x="543" y="25" type="line"/>
      <point x="572" y="-5"/>
      <point x="640" y="-15"/>
      <point x="700" y="-15" type="qcurve" smooth="yes"/>
      <point x="800" y="-15"/>
      <point x="953" y="129"/>
      <point x="953" y="250" type="qcurve" smooth="yes"/>
      <point x="953" y="679" type="line" smooth="yes"/>
      <point x="953" y="805"/>
      <point x="804" y="939"/>
      <point x="704" y="939" type="qcurve" smooth="yes"/>
      <point x="631" y="939"/>
      <point x="558" y="867"/>
      <point x="542" y="830" type="qcurve"/>
      <point x="542" y="1456" type="line"/>
      <point x="-22" y="1456" type="line"/>
    </contour>
    <contour>
      <point x="542" y="310" type="qcurve"/>
      <point x="542" y="571" type="line"/>
      <point x="530" y="565"/>
      <point x="508" y="564"/>
      <point x="480" y="564" type="qcurve" smooth="yes"/>
      <point x="430" y="564"/>
      <point x="396" y="622"/>
      <point x="396" y="641" type="qcurve"/>
      <point x="396" y="265" type="line"/>
      <point x="396" y="280"/>
      <point x="433" y="348"/>
      <point x="470" y="348" type="qcurve" smooth="yes"/>
      <point x="499" y="348"/>
      <point x="531" y="326"/>
    </contour>
  </outline>
</glyph>
<glyph name="c" format="2">
  <advance width="883"/>
  <unicode hex="0063"/>
  <outline>
    <contour>
      <point x="10" y="286" type="line" smooth="yes"/>
      <point x="10" y="139"/>
      <point x="249" y="-22"/>
      <point x="465" y="-22" type="qcurve" smooth="yes"/>
      <point x="650" y="-22"/>
      <point x="876" y="118"/>
      <point x="883" y="280" type="qcurve" smooth="yes"/>
      <point x="884" y="416" type="line"/>
      <point x="409" y="416" type="line"/>
      <point x="409" y="330" type="line" smooth="yes"/>
      <point x="409" y="324"/>
      <point x="443" y="355"/>
      <point x="486" y="355" type="qcurve" smooth="yes"/>
      <point x="533" y="355"/>
      <point x="576" y="286"/>
      <point x="576" y="266" type="qcurve"/>
      <point x="576" y="679" type="line"/>
      <point x="576" y="626"/>
      <point x="522" y="559"/>
      <point x="483" y="559" type="qcurve" smooth="yes"/>
      <point x="436" y="559"/>
      <point x="413" y="584"/>
      <point x="412" y="584" type="qcurve"/>
      <point x="412" y="489" type="line"/>
      <point x="884" y="489" type="line"/>
      <point x="882" y="632" type="line"/>
      <point x="869" y="778"/>
      <point x="649" y="947"/>
      <point x="460" y="947" type="qcurve" smooth="yes"/>
      <point x="250" y="947"/>
      <point x="10" y="795"/>
      <point x="10" y="657" type="qcurve" smooth="yes"/>
    </contour>
  </outline>
</glyph>
<glyph name="d" format="2">
  <advance width="962"/>
  <unicode hex="0064"/>
  <outline>
    <contour>
      <point x="10" y="255" type="line" smooth="yes"/>
      <point x="10" y="128"/>
      <point x="128" y="-15"/>
      <point x="238" y="-15" type="qcurve" smooth="yes"/>
      <point x="309" y="-15"/>
      <point x="407" y="26"/>
      <point x="434" y="66" type="qcurve"/>
      <point x="436" y="66" type="line"/>
      <point x="435" y="0" type="line"/>
      <point x="984" y="0" type="line"/>
      <point x="984" y="1456" type="line"/>
      <point x="439" y="1456" type="line"/>
      <point x="439" y="825" type="line"/>
      <point x="423" y="857"/>
      <point x="326" y="928"/>
      <point x="245" y="928" type="qcurve" smooth="yes"/>
      <point x="134" y="928"/>
      <point x="10" y="806"/>
      <point x="10" y="678" type="qcurve" smooth="yes"/>
    </contour>
    <contour>
      <point x="568" y="271" type="qcurve"/>
      <point x="568" y="647" type="line"/>
      <point x="568" y="629"/>
      <point x="533" y="565"/>
      <point x="483" y="565" type="qcurve" smooth="yes"/>
      <point x="456" y="565"/>
      <point x="431" y="556"/>
      <point x="420" y="561" type="qcurve"/>
      <point x="420" y="310" type="line"/>
      <point x="428" y="325"/>
      <point x="464" y="347"/>
      <point x="483" y="347" type="qcurve" smooth="yes"/>
      <point x="530" y="347"/>
      <point x="568" y="285"/>
    </contour>
  </outline>
</glyph>
<glyph name="e" format="2">
  <advance width="957"/>
  <unicode hex="0065"/>
  <outline>
    <contour>
      <point x="10" y="290" type="line" smooth="yes"/>
      <point x="10" y="115"/>
      <point x="258" y="-22"/>
      <point x="482" y="-22" type="qcurve" smooth="yes"/>
      <point x="726" y="-22"/>
      <point x="940" y="179"/>
      <point x="963" y="374" type="qcurve"/>
      <point x="446" y="403" type="line"/>
      <point x="467" y="379"/>
      <point x="493" y="350"/>
      <point x="478" y="350" type="qcurve"/>
      <point x="528" y="350"/>
      <point x="578" y="277"/>
      <point x="578" y="290" type="qcurve" smooth="yes"/>
      <point x="578" y="667" type="line"/>
      <point x="578" y="656"/>
      <point x="532" y="574"/>
      <point x="491" y="574" type="qcurve" smooth="yes"/>
      <point x="449" y="574"/>
      <point x="411" y="631"/>
      <point x="412" y="619" type="qcurve"/>
      <point x="412" y="517" type="line"/>
      <point x="556" y="517" type="line"/>
      <point x="556" y="440" type="line"/>
      <point x="953" y="440" type="line"/>
      <point x="953" y="654" type="line" smooth="yes"/>
      <point x="953" y="797"/>
      <point x="716" y="945"/>
      <point x="498" y="945" type="qcurve" smooth="yes"/>
      <point x="269" y="945"/>
      <point x="10" y="797"/>
      <point x="10" y="659" type="qcurve" smooth="yes"/>
    </contour>
  </outline>
</glyph>
<glyph name="f" format="2">
  <advance width="703"/>
  <unicode hex="0066"/>
  <outline>
    <contour>
      <point x="68" y="0" type="line"/>
      <point x="627" y="0" type="line"/>
      <point x="627" y="830" type="line"/>
      <point x="617" y="839" type="line"/>
      <point x="617" y="1055" type="line" smooth="yes"/>
      <point x="617" y="1069"/>
      <point x="642" y="1064"/>
      <point x="650" y="1064" type="qcurve" smooth="yes"/>
      <point x="673" y="1064"/>
      <point x="679" y="1063"/>
      <point x="688" y="1061" type="qcurve"/>
      <point x="733" y="1456" type="line"/>
      <point x="695" y="1464"/>
      <point x="620" y="1478"/>
      <point x="560" y="1478" type="qcurve" smooth="yes"/>
      <point x="338" y="1478"/>
      <point x="68" y="1335"/>
      <point x="68" y="1176" type="qcurve" smooth="yes"/>
    </contour>
    <contour>
      <point x="24" y="520" type="line"/>
      <point x="704" y="520" type="line"/>
      <point x="704" y="914" type="line"/>
      <point x="154" y="914" type="line"/>
      <point x="136" y="914" type="line"/>
      <point x="24" y="914" type="line"/>
    </contour>
  </outline>
</glyph>
<glyph name="g" format="2">
  <advance width="961"/>
  <unicode hex="0067"/>
  <outline>
    <contour>
      <point x="55" y="-442" type="line"/>
      <point x="123" y="-435"/>
      <point x="320" y="-451"/>
      <point x="457" y="-451" type="qcurve" smooth="yes"/>
      <point x="706" y="-451"/>
      <point x="983" y="-217"/>
      <point x="983" y="-7" type="qcurve" smooth="yes"/>
      <point x="983" y="914" type="line"/>
      <point x="419" y="914" type="line"/>
      <point x="420" y="818" type="line"/>
      <point x="417" y="818" type="line"/>
      <point x="398" y="856"/>
      <point x="309" y="928"/>
      <point x="232" y="928" type="qcurve" smooth="yes"/>
      <point x="127" y="928"/>
      <point x="10" y="805"/>
      <point x="10" y="679" type="qcurve" smooth="yes"/>
      <point x="10" y="254" type="line" smooth="yes"/>
      <point x="10" y="130"/>
      <point x="141" y="-14"/>
      <point x="241" y="-14" type="qcurve" smooth="yes"/>
      <point x="340" y="-14"/>
      <point x="405" y="27"/>
      <point x="431" y="67" type="qcurve"/>
      <point x="431" y="-111" type="line" smooth="yes"/>
      <point x="431" y="-120"/>
      <point x="334" y="-92"/>
      <point x="312" y="-92" type="qcurve" smooth="yes"/>
      <point x="256" y="-92"/>
      <point x="76" y="-54"/>
      <point x="49" y="-43" type="qcurve"/>
    </contour>
    <contour>
      <point x="568" y="271" type="qcurve"/>
      <point x="568" y="647" type="line"/>
      <point x="568" y="628"/>
      <point x="532" y="565"/>
      <point x="484" y="565" type="qcurve" smooth="yes"/>
      <point x="457" y="565"/>
      <point x="431" y="565"/>
      <point x="420" y="573" type="qcurve"/>
      <point x="420" y="304" type="line"/>
      <point x="429" y="318"/>
      <point x="463" y="338"/>
      <point x="481" y="338" type="qcurve" smooth="yes"/>
      <point x="533" y="338"/>
      <point x="568" y="283"/>
    </contour>
  </outline>
</glyph>
<glyph name="h" format="2">
  <advance width="935"/>
  <unicode hex="0068"/>
  <outline>
    <contour>
      <point x="-22" y="0" type="line"/>
      <point x="545" y="0" type="line"/>
      <point x="545" y="568" type="line"/>
      <point x="532" y="555"/>
      <point x="494" y="531"/>
      <point x="468" y="531" type="qcurve" smooth="yes"/>
      <point x="434" y="531"/>
      <point x="403" y="556"/>
      <point x="403" y="587" type="qcurve"/>
      <point x="403" y="0" type="line"/>
      <point x="969" y="0" type="line"/>
      <point x="969" y="690" type="line" smooth="yes"/>
      <point x="969" y="818"/>
      <point x="838" y="938"/>
      <point x="740" y="938" type="qcurve" smooth="yes"/>
      <point x="648" y="938"/>
      <point x="546" y="872"/>
      <point x="544" y="826" type="qcurve"/>
      <point x="543" y="1454" type="line"/>
      <point x="-22" y="1454" type="line"/>
    </contour>
  </outline>
</glyph>
<glyph name="i" format="2">
  <advance width="529"/>
  <unicode hex="0069"/>
  <outline>
    <contour>
      <point x="-26" y="0" type="line"/>
      <point x="554" y="0" type="line"/>
      <point x="554" y="914" type="line"/>
      <point x="-26" y="914" type="line"/>
    </contour>
    <contour>
      <point x="-40" y="1197" type="qcurve" smooth="yes"/>
      <point x="-40" y="1084"/>
      <point x="114" y="924"/>
      <point x="262" y="924" type="qcurve" smooth="yes"/>
      <point x="410" y="924"/>
      <point x="569" y="1084"/>
      <point x="569" y="1196" type="qcurve" smooth="yes"/>
      <point x="569" y="1312"/>
      <point x="415" y="1464"/>
      <point x="267" y="1464" type="qcurve" smooth="yes"/>
      <point x="118" y="1464"/>
      <point x="-40" y="1309"/>
    </contour>
  </outline>
</glyph>
<glyph name="j" format="2">
  <advance width="591"/>
  <unicode hex="006A"/>
  <outline>
    <contour>
      <point x="-247" y="-419" type="line"/>
      <point x="-202" y="-426"/>
      <point x="-45" y="-441"/>
      <point x="49" y="-441" type="qcurve" smooth="yes"/>
      <point x="325" y="-441"/>
      <point x="615" y="-238"/>
      <point x="615" y="-17" type="qcurve" smooth="yes"/>
      <point x="612" y="914" type="line"/>
      <point x="35" y="914" type="line"/>
      <point x="35" y="85" type="line" smooth="yes"/>
      <point x="35" y="-3"/>
      <point x="-18" y="-35"/>
      <point x="-81" y="-35" type="qcurve" smooth="yes"/>
      <point x="-170" y="-35"/>
      <point x="-239" y="-20"/>
      <point x="-260" y="-17" type="qcurve"/>
    </contour>
    <contour>
      <point x="20" y="1196" type="qcurve" smooth="yes"/>
      <point x="20" y="1084"/>
      <point x="174" y="923"/>
      <point x="321" y="923" type="qcurve" smooth="yes"/>
      <point x="469" y="923"/>
      <point x="628" y="1084"/>
      <point x="628" y="1196" type="qcurve" smooth="yes"/>
      <point x="628" y="1312"/>
      <point x="474" y="1464"/>
      <point x="326" y="1464" type="qcurve" smooth="yes"/>
      <point x="178" y="1464"/>
      <point x="20" y="1310"/>
    </contour>
  </outline>
</glyph>
<glyph name="k" format="2">
  <advance width="1187"/>
  <unicode hex="006B"/>
  <outline>
    <contour>
      <point x="-22" y="0" type="line"/>
      <point x="545" y="0" type="line"/>
      <point x="545" y="113" type="line"/>
      <point x="1190" y="914" type="line"/>
      <point x="585" y="914" type="line"/>
      <point x="545" y="711" type="line"/>
      <point x="545" y="1456" type="line"/>
      <point x="-22" y="1456" type="line"/>
    </contour>
    <contour>
      <point x="581" y="0" type="line"/>
      <point x="1221" y="0" type="line"/>
      <point x="861" y="784" type="line"/>
      <point x="522" y="370" type="line"/>
    </contour>
  </outline>
</glyph>
<glyph name="l" format="2">
  <advance width="534"/>
  <unicode hex="006C"/>
  <outline>
    <contour>
      <point x="-20" y="0" type="line"/>
      <point x="554" y="0" type="line"/>
      <point x="554" y="1456" type="line"/>
      <point x="-20" y="1456" type="line"/>
    </contour>
  </outline>
</glyph>
<glyph name="m" format="2">
  <advance width="1372"/>
  <unicode hex="006D"/>
  <outline>
    <contour>
      <point x="-22" y="-1" type="line"/>
      <point x="545" y="-1" type="line"/>
      <point x="545" y="560" type="line"/>
      <point x="529" y="549"/>
      <point x="491" y="538"/>
      <point x="471" y="538" type="qcurve" smooth="yes"/>
      <point x="439" y="538"/>
      <point x="408" y="554"/>
      <point x="408" y="580" type="qcurve"/>
      <point x="408" y="-1" type="line"/>
      <point x="976" y="-1" type="line"/>
      <point x="976" y="561" type="line"/>
      <point x="959" y="546"/>
      <point x="925" y="533"/>
      <point x="903" y="533" type="qcurve" smooth="yes"/>
      <point x="871" y="533"/>
      <point x="840" y="545"/>
      <point x="840" y="580" type="qcurve"/>
      <point x="840" y="-1" type="line"/>
      <point x="1408" y="-1" type="line"/>
      <point x="1408" y="695" type="line" smooth="yes"/>
      <point x="1408" y="828"/>
      <point x="1292" y="937"/>
      <point x="1183" y="937" type="qcurve" smooth="yes"/>
      <point x="1093" y="937"/>
      <point x="969" y="869"/>
      <point x="939" y="826" type="qcurve"/>
      <point x="936" y="826" type="line"/>
      <point x="924" y="873"/>
      <point x="825" y="935"/>
      <point x="748" y="935" type="qcurve" smooth="yes"/>
      <point x="665" y="935"/>
      <point x="560" y="876"/>
      <point x="541" y="825" type="qcurve"/>
      <point x="537" y="825" type="line"/>
      <point x="537" y="913" type="line"/>
      <point x="-22" y="913" type="line"/>
    </contour>
  </outline>
</glyph>
<glyph name="n" format="2">
  <advance width="935"/>
  <unicode hex="006E"/>
  <outline>
    <contour>
      <point x="-22" y="0" type="line"/>
      <point x="545" y="0" type="line"/>
      <point x="545" y="568" type="line"/>
      <point x="532" y="555"/>
      <point x="494" y="533"/>
      <point x="468" y="533" type="qcurve" smooth="yes"/>
      <point x="434" y="533"/>
      <point x="402" y="555"/>
      <point x="402" y="587" type="qcurve"/>
      <point x="402" y="0" type="line"/>
      <point x="969" y="0" type="line"/>
      <point x="969" y="690" type="line" smooth="yes"/>
      <point x="969" y="819"/>
      <point x="838" y="938"/>
      <point x="740" y="938" type="qcurve" smooth="yes"/>
      <point x="646" y="938"/>
      <point x="551" y="878"/>
      <point x="545" y="835" type="qcurve"/>
      <point x="544" y="835" type="line"/>
      <point x="544" y="914" type="line"/>
      <point x="-22" y="914" type="line"/>
    </contour>
  </outline>
</glyph>
<glyph name="o" format="2">
  <advance width="959"/>
  <unicode hex="006F"/>
  <outline>
    <contour>
      <point x="10" y="289" type="line" smooth="yes"/>
      <point x="10" y="141"/>
      <point x="267" y="-22"/>
      <point x="479" y="-22" type="qcurve" smooth="yes"/>
      <point x="693" y="-22"/>
      <point x="949" y="141"/>
      <point x="949" y="289" type="qcurve" smooth="yes"/>
      <point x="949" y="659" type="line" smooth="yes"/>
      <point x="949" y="795"/>
      <point x="694" y="947"/>
      <point x="479" y="947" type="qcurve" smooth="yes"/>
      <point x="266" y="947"/>
      <point x="10" y="795"/>
      <point x="10" y="659" type="qcurve" smooth="yes"/>
    </contour>
    <contour>
      <point x="575" y="674" type="line"/>
      <point x="575" y="645"/>
      <point x="525" y="566"/>
      <point x="476" y="566" type="qcurve" smooth="yes"/>
      <point x="426" y="566"/>
      <point x="376" y="645"/>
      <point x="376" y="674" type="qcurve"/>
      <point x="376" y="272" type="line"/>
      <point x="376" y="288"/>
      <point x="426" y="351"/>
      <point x="476" y="351" type="qcurve" smooth="yes"/>
      <point x="525" y="351"/>
      <point x="575" y="288"/>
      <point x="575" y="273" type="qcurve"/>
    </contour>
  </outline>
</glyph>
<glyph name="p" format="2">
  <advance width="955"/>
  <unicode hex="0070"/>
  <outline>
    <contour>
      <point x="-22" y="-388" type="line"/>
      <point x="542" y="-388" type="line"/>
      <point x="542" y="12" type="line"/>
      <point x="577" y="-7"/>
      <point x="634" y="-15"/>
      <point x="695" y="-15" type="qcurve" smooth="yes"/>
      <point x="800" y="-15"/>
      <point x="945" y="129"/>
      <point x="945" y="249" type="qcurve" smooth="yes"/>
      <point x="945" y="679" type="line" smooth="yes"/>
      <point x="945" y="825"/>
      <point x="807" y="940"/>
      <point x="699" y="940" type="qcurve" smooth="yes"/>
      <point x="621" y="940"/>
      <point x="552" y="885"/>
      <point x="539" y="862" type="qcurve"/>
      <point x="535" y="861" type="line"/>
      <point x="535" y="914" type="line"/>
      <point x="-22" y="914" type="line"/>
    </contour>
    <contour>
      <point x="542" y="309" type="qcurve"/>
      <point x="542" y="572" type="line"/>
      <point x="527" y="568"/>
      <point x="502" y="565"/>
      <point x="478" y="565" type="qcurve" smooth="yes"/>
      <point x="422" y="565"/>
      <point x="389" y="650"/>
      <point x="389" y="676" type="qcurve"/>
      <point x="389" y="236" type="line"/>
      <point x="389" y="264"/>
      <point x="426" y="347"/>
      <point x="474" y="347" type="qcurve" smooth="yes"/>
      <point x="495" y="347"/>
      <point x="533" y="324"/>
    </contour>
  </outline>
</glyph>
<glyph name="q" format="2">
  <advance width="958"/>
  <unicode hex="0071"/>
  <outline>
    <contour>
      <point x="10" y="255" type="line" smooth="yes"/>
      <point x="10" y="128"/>
      <point x="132" y="-15"/>
      <point x="246" y="-15" type="qcurve" smooth="yes"/>
      <point x="316" y="-15"/>
      <point x="409" y="38"/>
      <point x="434" y="79" type="qcurve"/>
      <point x="430" y="79" type="line"/>
      <point x="430" y="-390" type="line"/>
      <point x="980" y="-390" type="line"/>
      <point x="980" y="914" type="line"/>
      <point x="435" y="914" type="line"/>
      <point x="435" y="843" type="line"/>
      <point x="437" y="843" type="line"/>
      <point x="428" y="862"/>
      <point x="331" y="928"/>
      <point x="243" y="928" type="qcurve" smooth="yes"/>
      <point x="132" y="928"/>
      <point x="10" y="806"/>
      <point x="10" y="678" type="qcurve" smooth="yes"/>
    </contour>
    <contour>
      <point x="568" y="271" type="qcurve"/>
      <point x="568" y="647" type="line"/>
      <point x="568" y="629"/>
      <point x="531" y="567"/>
      <point x="481" y="567" type="qcurve" smooth="yes"/>
      <point x="454" y="567"/>
      <point x="429" y="556"/>
      <point x="417" y="561" type="qcurve"/>
      <point x="417" y="310" type="line"/>
      <point x="424" y="325"/>
      <point x="461" y="345"/>
      <point x="481" y="345" type="qcurve" smooth="yes"/>
      <point x="529" y="345"/>
      <point x="568" y="285"/>
    </contour>
  </outline>
</glyph>
<glyph name="r" format="2">
  <advance width="881"/>
  <unicode hex="0072"/>
  <outline>
    <contour>
      <point x="8" y="0" type="line"/>
      <point x="592" y="0" type="line"/>
      <point x="592" y="457" type="line"/>
      <point x="622" y="495"/>
      <point x="723" y="531"/>
      <point x="766" y="531" type="qcurve" smooth="yes"/>
      <point x="799" y="531"/>
      <point x="851" y="524"/>
      <point x="868" y="514" type="qcurve"/>
      <point x="870" y="909" type="line"/>
      <point x="862" y="913"/>
      <point x="811" y="921"/>
      <point x="770" y="921" type="qcurve" smooth="yes"/>
      <point x="719" y="921"/>
      <point x="619" y="858"/>
      <point x="588" y="804" type="qcurve"/>
      <point x="587" y="804" type="line"/>
      <point x="587" y="914" type="line"/>
      <point x="8" y="914" type="line"/>
    </contour>
  </outline>
</glyph>
<glyph name="s" format="2">
  <advance width="844"/>
  <unicode hex="0073"/>
  <outline>
    <contour>
      <point x="-42" y="314" type="line"/>
      <point x="-41" y="250" type="line"/>
      <point x="-31" y="131"/>
      <point x="190" y="-23"/>
      <point x="418" y="-23" type="qcurve" smooth="yes"/>
      <point x="646" y="-23"/>
      <point x="876" y="142"/>
      <point x="876" y="275" type="qcurve" smooth="yes"/>
      <point x="876" y="416"/>
      <point x="716" y="548"/>
      <point x="543" y="586" type="qcurve" smooth="yes"/>
      <point x="427" y="617"/>
      <point x="441" y="626"/>
      <point x="442" y="640" type="qcurve" smooth="yes"/>
      <point x="443" y="655"/>
      <point x="414" y="652"/>
      <point x="401" y="652" type="qcurve" smooth="yes"/>
      <point x="388" y="652"/>
      <point x="371" y="657"/>
      <point x="371" y="656" type="qcurve" smooth="yes"/>
      <point x="371" y="602" type="line"/>
      <point x="851" y="602" type="line"/>
      <point x="851" y="678" type="line" smooth="yes"/>
      <point x="851" y="786"/>
      <point x="612" y="947"/>
      <point x="418" y="947" type="qcurve" smooth="yes"/>
      <point x="228" y="947"/>
      <point x="-37" y="776"/>
      <point x="-37" y="637" type="qcurve" smooth="yes"/>
      <point x="-37" y="510"/>
      <point x="82" y="377"/>
      <point x="274" y="326" type="qcurve" smooth="yes"/>
      <point x="385" y="294"/>
      <point x="357" y="272"/>
      <point x="357" y="256" type="qcurve" smooth="yes"/>
      <point x="357" y="243"/>
      <point x="390" y="247"/>
      <point x="405" y="247" type="qcurve" smooth="yes"/>
      <point x="425" y="247"/>
      <point x="442" y="241"/>
      <point x="442" y="260" type="qcurve" smooth="yes"/>
      <point x="442" y="306" type="line"/>
    </contour>
  </outline>
</glyph>
<glyph name="t" format="2">
  <advance width="672"/>
  <unicode hex="0074"/>
  <outline>
    <contour>
      <point x="9" y="526" type="line"/>
      <point x="670" y="526" type="line"/>
      <point x="670" y="914" type="line"/>
      <point x="9" y="914" type="line"/>
    </contour>
    <contour>
      <point x="43" y="222" type="line" smooth="yes"/>
      <point x="43" y="123"/>
      <point x="201" y="-13"/>
      <point x="363" y="-13" type="qcurve" smooth="yes"/>
      <point x="507" y="-13"/>
      <point x="671" y="5"/>
      <point x="706" y="14" type="qcurve"/>
      <point x="706" y="372" type="line"/>
      <point x="693" y="369"/>
      <point x="660" y="365"/>
      <point x="633" y="365" type="qcurve" smooth="yes"/>
      <point x="617" y="365"/>
      <point x="596" y="397"/>
      <point x="596" y="432" type="qcurve" smooth="yes"/>
      <point x="596" y="1072" type="line"/>
      <point x="63" y="1072" type="line"/>
      <point x="63" y="883" type="line"/>
      <point x="43" y="872" type="line"/>
    </contour>
  </outline>
</glyph>
<glyph name="u" format="2">
  <advance width="1005"/>
  <unicode hex="0075"/>
  <outline>
    <contour>
      <point x="6" y="204" type="line" smooth="yes"/>
      <point x="6" y="98"/>
      <point x="135" y="-24"/>
      <point x="240" y="-24" type="qcurve" smooth="yes"/>
      <point x="340" y="-24"/>
      <point x="436" y="35"/>
      <point x="431" y="65" type="qcurve"/>
      <point x="433" y="65" type="line"/>
      <point x="430" y="0" type="line"/>
      <point x="997" y="0" type="line"/>
      <point x="997" y="914" type="line"/>
      <point x="431" y="914" type="line"/>
      <point x="431" y="326" type="line"/>
      <point x="442" y="341"/>
      <point x="476" y="367"/>
      <point x="499" y="367" type="qcurve" smooth="yes"/>
      <point x="537" y="367"/>
      <point x="573" y="354"/>
      <point x="573" y="337" type="qcurve"/>
      <point x="573" y="914" type="line"/>
      <point x="6" y="914" type="line"/>
    </contour>
  </outline>
</glyph>
<glyph name="v" format="2">
  <advance width="915"/>
  <unicode hex="0076"/>
  <outline>
    <contour>
      <point x="-10" y="914" type="line"/>
      <point x="196" y="0" type="line"/>
      <point x="725" y="0" type="line"/>
      <point x="925" y="914" type="line"/>
      <point x="434" y="914" type="line"/>
      <point x="459" y="717" type="line"/>
      <point x="460" y="694"/>
      <point x="455" y="634"/>
      <point x="466" y="632" type="qcurve"/>
      <point x="470" y="632" type="line"/>
      <point x="481" y="631"/>
      <point x="477" y="695"/>
      <point x="478" y="718" type="qcurve"/>
      <point x="516" y="914" type="line"/>
    </contour>
  </outline>
</glyph>
<glyph name="w" format="2">
  <advance width="1393"/>
  <unicode hex="0077"/>
  <outline>
    <contour>
      <point x="-10" y="914" type="line"/>
      <point x="186" y="0" type="line"/>
      <point x="701" y="0" type="line"/>
      <point x="693" y="231" type="line"/>
      <point x="694" y="241"/>
      <point x="691" y="242"/>
      <point x="693" y="250" type="qcurve"/>
      <point x="693" y="250" type="line"/>
      <point x="697" y="242"/>
      <point x="694" y="243"/>
      <point x="695" y="231" type="qcurve"/>
      <point x="686" y="0" type="line"/>
      <point x="1195" y="0" type="line"/>
      <point x="1403" y="914" type="line"/>
      <point x="925" y="914" type="line"/>
      <point x="912" y="690" type="line"/>
      <point x="906" y="661"/>
      <point x="912" y="654"/>
      <point x="915" y="637" type="qcurve"/>
      <point x="913" y="637" type="line"/>
      <point x="915" y="654"/>
      <point x="920" y="667"/>
      <point x="919" y="690" type="qcurve"/>
      <point x="950" y="914" type="line"/>
      <point x="494" y="914" type="line"/>
      <point x="512" y="688" type="line"/>
      <point x="510" y="664"/>
      <point x="513" y="653"/>
      <point x="511" y="633" type="qcurve"/>
      <point x="512" y="633" type="line"/>
      <point x="511" y="653"/>
      <point x="511" y="664"/>
      <point x="507" y="688" type="qcurve"/>
      <point x="508" y="914" type="line"/>
    </contour>
  </outline>
</glyph>
<glyph name="x" format="2">
  <advance width="917"/>
  <unicode hex="0078"/>
  <outline>
    <contour>
      <point x="-36" y="0" type="line"/>
      <point x="425" y="0" type="line"/>
      <point x="566" y="426" type="line"/>
      <point x="753" y="444" type="line"/>
      <point x="944" y="914" type="line"/>
      <point x="486" y="914" type="line"/>
      <point x="324" y="534" type="line"/>
      <point x="177" y="520" type="line"/>
    </contour>
    <contour>
      <point x="-26" y="914" type="line"/>
      <point x="185" y="440" type="line"/>
      <point x="239" y="421" type="line"/>
      <point x="393" y="0" type="line"/>
      <point x="953" y="0" type="line"/>
      <point x="721" y="523" type="line"/>
      <point x="671" y="525" type="line"/>
      <point x="533" y="914" type="line"/>
    </contour>
  </outline>
</glyph>
<glyph name="y" format="2">
  <advance width="906"/>
  <unicode hex="0079"/>
  <outline>
    <contour>
      <point x="-193" y="-394" type="line"/>
      <point x="-140" y="-403"/>
      <point x="30" y="-422"/>
      <point x="171" y="-422" type="qcurve" smooth="yes"/>
      <point x="382" y="-422"/>
      <point x="686" y="-234"/>
      <point x="783" y="72" type="qcurve"/>
      <point x="916" y="914" type="line"/>
      <point x="432" y="914" type="line"/>
      <point x="455" y="688" type="line"/>
      <point x="458" y="683"/>
      <point x="462" y="671"/>
      <point x="465" y="670" type="qcurve"/>
      <point x="465" y="670" type="line"/>
      <point x="472" y="671"/>
      <point x="479" y="685"/>
      <point x="482" y="687" type="qcurve"/>
      <point x="512" y="914" type="line"/>
      <point x="-10" y="914" type="line"/>
      <point x="202" y="1" type="line"/>
      <point x="192" y="-52" type="line"/>
      <point x="223" y="-30"/>
      <point x="129" y="-60"/>
      <point x="35" y="-60" type="qcurve" smooth="yes"/>
      <point x="-8" y="-60"/>
      <point x="-90" y="-54"/>
      <point x="-132" y="-53" type="qcurve"/>
    </contour>
  </outline>
</glyph>
<glyph name="z" format="2">
  <advance width="791"/>
  <unicode hex="007A"/>
  <outline>
    <contour>
      <point x="15" y="0" type="line"/>
      <point x="776" y="0" type="line"/>
      <point x="776" y="374" type="line"/>
      <point x="694" y="374" type="line"/>
      <point x="758" y="609" type="line"/>
      <point x="758" y="914" type="line"/>
      <point x="34" y="914" type="line"/>
      <point x="34" y="520" type="line"/>
      <point x="80" y="520" type="line"/>
      <point x="15" y="285" type="line"/>
    </contour>
  </outline>
</glyph>
<glyph name="quoteright" format="2">
  <advance width="193"/>
  <unicode hex="2019"/>
  <outline>
    <contour>
      <point x="10" y="1174" type="qcurve"/>
      <point x="85" y="1134" type="line"/>
      <point x="131" y="1180"/>
      <point x="183" y="1293"/>
      <point x="183" y="1368" type="qcurve" smooth="yes"/>
      <point x="183" y="1456" type="line"/>
      <point x="70" y="1456" type="line"/>
      <point x="70" y="1368" type="line" smooth="yes"/>
      <point x="70" y="1307"/>
      <point x="40" y="1216"/>
    </contour>
  </outline>
</glyph>
